<svg
  ria-hidden="true" 
  style="position: absolute; width: 0; height: 0; overflow: hidden;" 
  version="1.1" 
  xmlns="http://www.w3.org/2000/svg" 
  xmlns:xlink="http://www.w3.org/1999/xlink">
  <defs>
    <symbol id="filter" viewBox="0 0 24 24">
      <path fill="#currentColor" d="M22.125 7.875H1.875C1.57663 7.875 1.29048 7.75647 1.0795 7.5455C0.868526 7.33452 0.75 7.04837 0.75 6.75C0.75 6.45163 0.868526 6.16548 1.0795 5.9545C1.29048 5.74353 1.57663 5.625 1.875 5.625H22.125C22.4234 5.625 22.7095 5.74353 22.9205 5.9545C23.1315 6.16548 23.25 6.45163 23.25 6.75C23.25 7.04837 23.1315 7.33452 22.9205 7.5455C22.7095 7.75647 22.4234 7.875 22.125 7.875V7.875ZM18.375 13.125H5.625C5.32663 13.125 5.04048 13.0065 4.8295 12.7955C4.61853 12.5845 4.5 12.2984 4.5 12C4.5 11.7016 4.61853 11.4155 4.8295 11.2045C5.04048 10.9935 5.32663 10.875 5.625 10.875H18.375C18.6734 10.875 18.9595 10.9935 19.1705 11.2045C19.3815 11.4155 19.5 11.7016 19.5 12C19.5 12.2984 19.3815 12.5845 19.1705 12.7955C18.9595 13.0065 18.6734 13.125 18.375 13.125ZM13.875 18.375H10.125C9.82663 18.375 9.54048 18.2565 9.3295 18.0455C9.11853 17.8345 9 17.5484 9 17.25C9 16.9516 9.11853 16.6655 9.3295 16.4545C9.54048 16.2435 9.82663 16.125 10.125 16.125H13.875C14.1734 16.125 14.4595 16.2435 14.6705 16.4545C14.8815 16.6655 15 16.9516 15 17.25C15 17.5484 14.8815 17.8345 14.6705 18.0455C14.4595 18.2565 14.1734 18.375 13.875 18.375Z" />
    </symbol>
    <symbol id="prev" viewBox="0 0 24 24">
      <path fill="#currentColor" d="M12 0C5.37288 0 0 5.37288 0 12C0 18.6271 5.37288 24 12 24C18.6271 24 24 18.6271 24 12C24 5.37288 18.6271 0 12 0ZM14.0371 16.886C14.1264 16.9708 14.1979 17.0727 14.2472 17.1856C14.2965 17.2985 14.3227 17.4202 14.3243 17.5434C14.3259 17.6666 14.3028 17.7888 14.2564 17.903C14.21 18.0171 14.1412 18.1208 14.054 18.2079C13.9669 18.295 13.8632 18.3638 13.7491 18.4102C13.635 18.4566 13.5127 18.4798 13.3895 18.4782C13.2663 18.4766 13.1447 18.4504 13.0318 18.401C12.9189 18.3517 12.817 18.2803 12.7321 18.191L7.19365 12.6525C7.02067 12.4794 6.9235 12.2447 6.9235 12C6.9235 11.7553 7.02067 11.5206 7.19365 11.3475L12.7321 5.80904C12.9066 5.64324 13.139 5.55217 13.3797 5.55525C13.6204 5.55833 13.8504 5.65532 14.0206 5.82554C14.1908 5.99575 14.2878 6.22573 14.2909 6.46643C14.294 6.70714 14.2029 6.93952 14.0371 7.11404L9.15173 12L14.0371 16.886Z" />
    </symbol>
    <symbol id="next" viewBox="0 0 24 24">
      <path fill="#currentColor" d="M0 12C0 18.6271 5.37288 24 12 24C18.6271 24 24 18.6271 24 12C24 5.37288 18.6271 0 12 0C5.37288 0 0 5.37288 0 12ZM14.8483 12L9.96288 7.11404C9.79708 6.93952 9.70601 6.70714 9.70909 6.46643C9.71218 6.22573 9.80917 5.99575 9.97938 5.82554C10.1496 5.65532 10.3796 5.55833 10.6203 5.55525C10.861 5.55217 11.0934 5.64324 11.2679 5.80904L16.8063 11.3475C16.9793 11.5206 17.0765 11.7553 17.0765 12C17.0765 12.2447 16.9793 12.4794 16.8063 12.6525L11.2679 18.191C11.0934 18.3568 10.861 18.4478 10.6203 18.4448C10.3796 18.4417 10.1496 18.3447 9.97938 18.1745C9.80917 18.0042 9.71218 17.7743 9.70909 17.5336C9.70601 17.2929 9.79708 17.0605 9.96288 16.886L14.8483 12Z" />
    </symbol>
  </defs>
</svg>